<svg id="Layer_1" data-name="Layer 1" xmlns="http://www.w3.org/2000/svg" viewBox="0 0 898.09 120.09"><defs><style>.cls-1{fill:#dbd7d2;}.cls-2{fill:none;stroke:#1f9b8c;stroke-linecap:round;stroke-miterlimit:10;stroke-width:6px;}.cls-3{font-size:52px;font-weight:700;}.cls-11,.cls-3,.cls-4,.cls-6,.cls-8{font-family:Lato;}.cls-11,.cls-4,.cls-6{font-size:76.49px;}.cls-4{fill:#3d3b3a;}.cls-5{letter-spacing:-2px;}.cls-6{fill:#1f9b8c;}.cls-7{letter-spacing:1px;}.cls-8{font-size:152.97px;fill:#343434;letter-spacing:-10px;}.cls-9{letter-spacing:-8px;}.cls-10{letter-spacing:-9px;}.cls-11{fill:#56514f;}.cls-12{letter-spacing:-1px;}</style></defs><title>logo_ecrcentral_new</title><path id="path4" class="cls-1" d="M60.14,0a59.58,59.58,0,0,0-7,.47,65.33,65.33,0,0,0-6.81,1.17c-0.71.17-1.38,0.51-2.11,0.7s-1.26.28-1.88,0.48c-0.79.25-1.61,0.44-2.36,0.7s-1.55.62-2.35,0.94c-1.55.62-3,1.37-4.46,2.12C32.6,6.84,32,7,31.5,7.28a53.85,53.85,0,0,0-4.93,3c-0.62.42-1.28,0.74-1.88,1.18-0.25.19-.46,0.28-0.7,0.47-0.71.53-1.44,1.06-2.11,1.64s-1.58,1.4-2.35,2.1c-0.25.23-.47,0.49-0.71,0.71-0.08.08-.16,0.15-0.23,0.23s-0.12.36-.23,0.48a55.86,55.86,0,0,0-4.7,4.69,0.94,0.94,0,0,0,0,.24,55.47,55.47,0,0,0-3.76,5.15c-0.16.24-.32,0.45-0.48,0.7s-0.35.28-.48,0.48c-0.45.74-.75,1.57-1.17,2.35-0.14.24-.34,0.45-0.48,0.71-0.56,1.09-1.13,2.17-1.64,3.28a1.64,1.64,0,0,0,0,.24,54.91,54.91,0,0,0-2.35,5.86C3.15,41.22,3,41.59,2.82,42c0,0,0,.16,0,0.23-0.15.45-.33,0.94-0.48,1.41-0.53,1.93-1,3.85-1.4,5.86-0.26,1.44-.56,3-0.7,4.46A58.94,58.94,0,0,0,0,60.05,59.86,59.86,0,0,0,.7,69c0,0.31-.05.65,0,0.94a57.86,57.86,0,0,0,1.41,5.86c0.2,0.72.48,1.41,0.7,2.11,0.31,1,.59,1.88.94,2.81,0.58,1.6,1.17,3.17,1.88,4.69C6,86.16,6.41,87,6.82,87.71a59.16,59.16,0,0,0,3.76,6.34c0.12,0.18.35,0.29,0.48,0.47a56.36,56.36,0,0,0,4.69,6.1c0.29,0.34.63,0.62,0.94,0.94s0.64,0.63.94,0.94A59.33,59.33,0,0,0,22.79,107a59.48,59.48,0,0,0,7.28,4.92,1.13,1.13,0,0,1,.24.23c0.4,0.23.78,0.48,1.17,0.71,2.37,1.17,5.2,2.43,7,3.28,0.82,0.32,1.73.44,2.58,0.7,0.4,0.15.78,0.35,1.17,0.48,1,0.31,2,.68,3.05.94l0.94,0.23a56.38,56.38,0,0,0,6.8,1.16,55.68,55.68,0,0,0,14.56,0c2.75-.35,5.11-0.92,7.52-1.41a59.38,59.38,0,0,0,31.7-20.61c0.21-.26.49-0.44,0.7-0.71a1.5,1.5,0,0,1,.23-0.23c0.11-.13.13-0.34,0.24-0.49a59.81,59.81,0,0,0,10.1-21.08c0.41-1.63.88-3.24,1.17-4.92,0-.24,0-0.47,0-0.71s0.18-.6.24-0.93,0.2-.62.23-0.94h-0.23a56.57,56.57,0,0,0,.7-7.52,61.54,61.54,0,0,0-1.17-12.18c-0.07-.32-0.16-0.62-0.24-0.94-0.35-1.56-.94-3.18-1.41-4.69,0,0,0-.16,0-0.23-0.09-.28-0.14-0.42-0.23-0.7-0.29-.9-0.61-1.94-0.94-2.81-0.09-.24-0.14-0.49-0.24-0.71-0.32-.82-0.81-1.55-1.17-2.34a1.13,1.13,0,0,0,0-.24c-0.19-.41-0.51-0.78-0.7-1.17-0.74-1.53-1.48-3-2.35-4.45-0.44-.73-0.71-1.63-1.18-2.35-0.19-.28-0.52-0.43-0.7-0.7-0.51-.74-1.11-1.39-1.65-2.11s-1-1.62-1.65-2.35a1.15,1.15,0,0,0,0-.23,60.94,60.94,0,0,0-4.23-4.47c-0.69-.69-1.38-1.45-2.11-2.1-0.21-.19-0.48-0.29-0.7-0.48-1.57-1.36-3.23-2.55-4.93-3.75-0.41-.28-0.75-0.66-1.18-0.93s-1.1-.6-1.64-0.94c-1-.63-2-1.3-3-1.88S86.9,6.36,85.94,5.9C84.34,5.14,82.7,4.42,81,3.79A58.51,58.51,0,0,0,74.9,1.92C73.07,1.45,71.18,1,69.27.75A61,61,0,0,0,60.11,0m0,7.5A55.69,55.69,0,0,1,66.69,8c1.35,0.18,2.67.45,4,.72h0.24c1.25,0.26,2.53.59,3.76,0.94,0.72,0.19,1.41.47,2.11,0.7,1.29,0.43,2.51.88,3.76,1.41,1.45,0.6,2.84,1.15,4.22,1.88a2.25,2.25,0,0,0-1.64,1.17,5.6,5.6,0,0,0,0,1.41,12,12,0,0,0,.94.94,0.79,0.79,0,0,0,.47,0,1.06,1.06,0,0,1,.48.94c-0.08.41-.66,0.16-0.94,0.47a2.1,2.1,0,0,1-.47,1.17,2.65,2.65,0,0,1,.47.47c0,0.33-.59.37-0.47,0.71,0.54,0.41,1.13-.17,1.64-0.24,1.12-.14,2.13.31,2.81-0.23-0.08-.53.77-0.69,0.71-1.17s-0.67-.46-0.94-0.69a7.31,7.31,0,0,1-.47-0.72c-0.19-.3-0.48-0.65-0.7-0.94a4.38,4.38,0,0,1-.94-1.16c0-.33.39-0.48,0.47-0.94-0.09-.43-0.88,0-0.94-0.48a1.36,1.36,0,0,1,.23-0.47A30.64,30.64,0,0,1,88.76,16l0.72,0.47c0.81,0.61,1.55,1.29,2.35,1.88a2.63,2.63,0,0,0-1.17,1.17,3.42,3.42,0,0,1-1.17.94,6.31,6.31,0,0,0-.7,0c-0.28.19-.38,0.72-0.71,0.94a4.52,4.52,0,0,1-1.17.7A8.71,8.71,0,0,0,86,21.87c-0.31.09-.13,0.58-0.48,0.7-0.66.23-1.88-.52-2.11,0.47,0.28,0.57,1.15.38,1.64,0.7A3.66,3.66,0,0,1,86,25.16a7.85,7.85,0,0,1,0,1.65c-0.31.8-1.2,0.72-2.11,0.71H83.14c-1.56-.12-3.06-0.64-3.76.48a6.41,6.41,0,0,1,0,2.1c-0.14.54-.73,0.94-0.71,1.42,0,0.23.41,0.61,0.48,0.94a2.6,2.6,0,0,0,0,.7c0.25,0.5,1,0,1.4,0a1.57,1.57,0,0,1,.94,1.41A2.63,2.63,0,0,1,81,35.73c-0.44.67-1.26,0.58-1.88,0.94a3.07,3.07,0,0,0-.94,1.41,2,2,0,0,0-.48,1.64,3.62,3.62,0,0,1-1.88,1.88,5.45,5.45,0,0,0-.94.48,4.3,4.3,0,0,0-.71.71,9.74,9.74,0,0,0-.94.94,5.45,5.45,0,0,1-.23.94c-0.22.42-.66,0.75-0.94,1.17-0.13.19-.32,0.44-0.47,0.71a3.42,3.42,0,0,0-.71,1.64c0.06,0.5.68,0.52,0.71,0.94,0,0.24-.25.44-0.24,0.7a5.69,5.69,0,0,0,.24.94,3.44,3.44,0,0,1-.48,1.42c-0.06.24,0.06,0.5,0,.7A5.19,5.19,0,0,0,70.44,54c0,0.32.44,0.73,0.48,1.17a6.39,6.39,0,0,0-.23.71c0.11,0.55,1.21,1.22,1.64,1.64a6.24,6.24,0,0,1,1.42,1.65,4.67,4.67,0,0,0,.7,1.64c0.3,0.28.79,0.4,1.18,0.7s0.8,0.41,1.17.71c0.61,0.48,1.37,1.47,2.36,1.41a12.7,12.7,0,0,0,1.64-.47A7,7,0,0,1,82.67,63c0.45,0,.93.5,1.4,0.48a5.45,5.45,0,0,0,1.65-.71,7.79,7.79,0,0,1,4-.94c1.1,0.16,1.12,1.63,1.88,2.11,0.9,0,1.65-.41,2.36-0.23a2.13,2.13,0,0,1,1.18,1.41,3,3,0,0,1-.48,1.17c-0.13.59-.12,1.26-0.24,1.65a4,4,0,0,0-.22.94,4,4,0,0,0,.7,1.4c0.33,0.43.77,0.72,1.18,1.18a13.7,13.7,0,0,1,1.64,2.81c0.13,0.28-.13.57,0,0.94a11.24,11.24,0,0,1-1.88,4.69,3.17,3.17,0,0,0-1.17,1.88c0,1.8,1,2.94.94,4.69-0.18,2.35.18,2.49,0,3.75,0.79,0.4.23,1.75,0,2.58-0.33,1-.76,1.22-0.94,1.88a3.15,3.15,0,0,0,1.88,0s0.72,3,.71,3a52.55,52.55,0,0,1-22.08,12.88c-4.13,1-5.36,1-7.28,1.42a48.28,48.28,0,0,1-7.75.7,45.33,45.33,0,0,1-5.4-.23c-1.37-.14-2.66-0.47-4-0.71a6.62,6.62,0,0,1-1.17-.23c-1.22-.41-2.64-0.67-3.76-0.94-1.28-.36-2.51-0.72-3.76-1.17a0.47,0.47,0,0,0,.24-0.23,3.33,3.33,0,0,0,0-.94c0.12-.49.6-0.42,0.7-0.94a2,2,0,0,0-.94-0.47,1,1,0,0,1-.47-0.94c0.53-.22,1.5.5,1.88-0.23,0.19-.33-0.26-1.06,0-1.41a4.4,4.4,0,0,1,1.65-.47,4.25,4.25,0,0,0,1.41-.24,1.67,1.67,0,0,0,.71-1.42,1.34,1.34,0,0,0-.47-0.71,4.83,4.83,0,0,1-.24-0.7,2.32,2.32,0,0,1-.7-0.94c0.72-.15,1.77.76,2.82,0.47A4.57,4.57,0,0,0,50,98.36c0-.14,0-0.29,0-0.47a4.74,4.74,0,0,1,.48-0.47,2.43,2.43,0,0,1,0-.71,2.93,2.93,0,0,1,.94-0.94c0.22-.29.48-0.66,0.71-0.94a7.69,7.69,0,0,0,.46-0.94c0.15-.92-0.45-1.55-0.23-2.35s1.48-1.25,2.36-1.66c0.3-.13.69-0.36,0.94-0.47,0.6-.2,1.32-0.26,1.87-0.47,0.94-.35,1.19-1.26,1.65-2.1a5,5,0,0,0,.48-1.18,5.17,5.17,0,0,1,0-.7A9.11,9.11,0,0,1,59.93,84a8.36,8.36,0,0,0,.23-1.64c0-.4-0.22-0.59-0.23-0.94a3,3,0,0,1,.94-2.35c0.24-.35.29-0.69,0.47-0.94,0.8-1.21,2.21-1.7,2.11-3.52,0-.6-0.26-1.93-0.7-2.11-0.27-.12-0.81-0.09-1.18-0.24-1.19-.44-2.06-2-3.29-2.1-0.26,0-.42.23-0.71,0.23A16.36,16.36,0,0,1,55.93,70a5.09,5.09,0,0,1-1.17,0c-0.32-.15-0.22-0.77-0.48-0.94a5.29,5.29,0,0,0-.93-0.23,4.8,4.8,0,0,0-1.41-.49h-0.7a2.17,2.17,0,0,1-.94-0.47,1.48,1.48,0,0,1-.71-0.7c0.32-1.08-.72-1.25-0.94-1.88-0.11-.29.08-0.67,0-0.94a2.52,2.52,0,0,0-.94-0.94,4.57,4.57,0,0,0-2.36-1.17H43.7a2.45,2.45,0,0,1-1.64-.94,6.15,6.15,0,0,0-.94-1.17,10.79,10.79,0,0,1-1.18-.47,1.59,1.59,0,0,1-.22-0.47A1.26,1.26,0,0,1,39.48,58c-0.39-.2-0.26.54-0.7,0.47a1.41,1.41,0,0,0-1.65-.7c-0.39,0-.69.45-1.17,0.47s-0.66-.4-1.18-0.47S33.88,58,33.62,58a2.84,2.84,0,0,1-.94-0.7,5.53,5.53,0,0,0-.94-0.7c-0.5,0-1,1.08-1.65.7-0.33-.43.65-0.54,0.23-0.94s-0.46,0-.71.23a6.18,6.18,0,0,1-.94.47,13,13,0,0,0-1.64.47,2.44,2.44,0,0,0-.94,1.17,2.3,2.3,0,0,1-.94,1.17A3.91,3.91,0,0,1,24,59.17c-1.15-.49-1.87.22-2.82,0.23a2.62,2.62,0,0,1-2.11-2.11c0-.51.41-1.25,0.48-1.88S20,54.46,20,54c0-.61-1-1.11-1.41-1.17-0.94-.17-2.21.46-3.3,0-0.2-.34.35-0.61,0.48-0.94s-0.07-.26,0-0.48,0.55-.6.7-0.94,0.12-.61.24-0.94a7.25,7.25,0,0,0,.47-0.94,1.21,1.21,0,0,0-.47-0.94,4.58,4.58,0,0,0-1.88.24c-1.08.5-.8,2-1.88,2.36-0.38.12-1,.15-1.41,0.22s-0.8.25-1.18,0.23A2.62,2.62,0,0,1,9,50a1,1,0,0,1-.23-0.47s0-.16,0-0.23c0.34-1.67.7-3.33,1.17-4.92a1.24,1.24,0,0,0,0-.24c0.32-1,.78-2,1.18-3a0.67,0.67,0,0,0,.23-0.22,3.89,3.89,0,0,1,1.88-.94,12,12,0,0,1,1.64.22,10.12,10.12,0,0,1,.94.48c0.92,0,1.12-.77,1.88-1.17a12.44,12.44,0,0,0,1.88,0c0.48,0,1,.68,1.41.71s0.4-.53.7-0.48a1.85,1.85,0,0,1,.94,1.17,8,8,0,0,0-.23,1.4c0.47,0.48,1.43.42,2.11,0.71,0.45-.37.07-0.9,0-1.42,0-.23,0-0.49,0-0.7,0-.36-0.23-0.63-0.23-0.94,0-1.43,1.15-2.25,2.11-2.81,0.42-.25.82-0.52,1.18-0.71s0.76-.47,1.17-0.7a14,14,0,0,0,2.11-1.17,6.13,6.13,0,0,0,0-2.1,1,1,0,0,1,.71,0,2.33,2.33,0,0,0,.94-0.93c0.15-.16.53-0.32,0.71-0.48a6.41,6.41,0,0,1,.94-0.94,2.4,2.4,0,0,0,.7-0.23c0.3-.08.7-0.3,1.18-0.47a8.68,8.68,0,0,0,1.17-.24,2.4,2.4,0,0,0,0-.94c0.25-1.13,2.05-1.26,3.06-1.64,0.7-.27,1.33-0.86,2.12-0.7-0.15.55-.82,0.28-0.71,0.94,0.18,0.91,1.32-.1,1.65-0.24,0.61-.25,1.78-0.41,2.58-0.7s1.84-.6,1.17-1.41c-0.56,0-.69.5-1.17,0.71a4.69,4.69,0,0,1-.7-0.23,4,4,0,0,1-.71.23,1.3,1.3,0,0,1-.7-0.94c-0.12-.83.82-1,1.18-1.64-0.24-.76-1.25-0.19-1.88-0.48a1.12,1.12,0,0,1,.94-0.94,3.76,3.76,0,0,1,1.64.24,2.89,2.89,0,0,0,.24.7,1.23,1.23,0,0,0,.94,0c0.11-.56-0.8-0.32-0.71-0.7,0.68-.44,2-0.12,2.82-0.24a3.61,3.61,0,0,0,1.41-.7c0.4-.23.74-0.6,1.17-0.24,0.12,0.41-.25.5-0.47,0.71a15.33,15.33,0,0,0-2.11,2.35,2.93,2.93,0,0,0,1.64.23,5.53,5.53,0,0,1,.71.23,3.36,3.36,0,0,1,.94,0c0.41,0.11.53,0.71,0.94,0.71,0.68,0,.61-0.94.23-1.42a1.29,1.29,0,0,0,.23-0.94c-0.31-.61-1.58.12-1.64-0.7,0-.5.52-0.56,0.71-0.94-0.09-1,.8-1,0.71-1.88a2.11,2.11,0,0,0-.71-0.7,1.82,1.82,0,0,0-.23-0.71c-0.52-.44-1.58-0.33-1.65-1.17,0-.5,0-0.87,0-1.41s-0.49-2-.94-2.11-1,.85-1.65,1.17a3.14,3.14,0,0,1-1.42.23,0.82,0.82,0,0,1-.7-0.71c0-.52.38-0.62,0.47-1.17-0.07-.33-0.38-0.22-0.7-0.47a3,3,0,0,0-1.17-.94c-0.24,0-.69.21-0.94,0.22a3.53,3.53,0,0,1-1.16-.22A4.17,4.17,0,0,0,43,10.37c0.91-.31,1.88-0.44,2.82-0.7a3.23,3.23,0,0,0,.47-0.24,5.45,5.45,0,0,0,.7.94,1.75,1.75,0,0,0,.71,0,4.05,4.05,0,0,0,2.11.48c0.28-.49-0.56-0.56-0.23-0.94a3.61,3.61,0,0,1,1.41.47c0.58-.42,1-0.5.94-1.17a1.4,1.4,0,0,0-.71-0.7l1.41-.24a0.31,0.31,0,0,0,.24.24A6.12,6.12,0,0,0,54.28,8a1.57,1.57,0,0,1,0-.24,56.38,56.38,0,0,1,5.87-.23M41.36,11.08a1.2,1.2,0,0,1-.71.7c0.09,0.49-.63.79-0.71,1.17a5.23,5.23,0,0,0,0,.94c0.16,2.4-1.88,3.58-4.23,3.52-0.46.44-.22,1.28-0.47,1.87a1.64,1.64,0,0,1-1.42.94,1.24,1.24,0,0,1-.94-0.94c0-.43.61-0.67,0.24-1.16,0.05-.33.8-0.65,0.7-1.18s-0.71-.14-1.42-0.23A4.42,4.42,0,0,1,31,16.24c0.76-.5,1.55-0.94,2.35-1.41s1.4-.79,2.11-1.17c1.89-1,3.93-1.82,5.87-2.58m40.38,5.63a1,1,0,0,0-.47.24c-0.38.23-.41,0.59-0.7,0.7s-0.88,0-.94.48a4.14,4.14,0,0,0,.23.7,3.77,3.77,0,0,0-.48.94c0.52,0.83,1.73,0,2.36-.23a1.08,1.08,0,0,0,.71-0.24,10.2,10.2,0,0,0,.23-1.16c0.14-.43.52-0.33,0.47-0.71a1.36,1.36,0,0,0-1.41-.7M26.77,22.58c0.46,0.12,1.47,1.45.48,1.88a16.17,16.17,0,0,1-1.64.23C25.25,24.68,25,24,24.66,24c-0.7-.11-1.64.77-2.12,0,0.12-.43.65-0.32,1.18-0.47,0.94-.25,2.24-1.14,3-0.93m1.88,2.34c0.23,0,.42.45,0.71,0.48s0.53-.27.7-0.23a0.73,0.73,0,0,1,.24,1.17c-0.33,0-.47-0.27-0.72-0.23-0.67.12-.9,1.45-1.41,1.41s-0.72-1.05-.24-1.41c0-.3-0.25-0.41-0.23-0.7a1.32,1.32,0,0,1,.94-0.48m-2.35.24h0.24a1.13,1.13,0,0,1-.7.94A2.82,2.82,0,0,0,24.41,28a1.78,1.78,0,0,1-1.17.94c-0.8-.17.28-1.65,0.47-1.88s0.47-.42.7-0.71a6.32,6.32,0,0,1,.48-0.94,3.45,3.45,0,0,1,1.42-.23m71.37,0.23a3,3,0,0,1,.71.71c0.2,0.14.48,0.09,0.7,0.23s0.41,0.45.7,0.71a8.34,8.34,0,0,0,1.64.94,2.84,2.84,0,0,1,.47.23c0.42,0.54.79,1.08,1.18,1.64a2.52,2.52,0,0,0,.23.94c0.4,0.54,1,1,1.41,1.64a1.14,1.14,0,0,0,.71,1.18c0.55,0.94,1.12,1.86,1.64,2.81,0.21,0.44.26,1,.47,1.42h-0.47c-0.5-.88-3.08-1.05-3.3.22-0.09.57,0.36,1.32-.47,1.41a18.06,18.06,0,0,1-1.88-.7,2.89,2.89,0,0,1-.93,0c-0.55-.18-0.47-0.84-0.94-1.17a4.37,4.37,0,0,0-1.41-.48h-0.7a2.09,2.09,0,0,1-1.18-.23,2.42,2.42,0,0,1-.94-0.71C95.22,35.8,96,35.32,96,35s-0.18-.33-0.24-0.71c0-.21,0-0.55,0-0.7a1,1,0,0,0-.94-0.47c-0.36,0-.63.22-0.94,0.23S92.6,33.07,92,33.12c-0.33,0-.63.21-0.94,0.23-0.87,0-1.44,0-2.12,0a5.63,5.63,0,0,0-1.87.47c-0.23.1-.41,0.32-0.71,0.47a2.72,2.72,0,0,0-.46.24A10.14,10.14,0,0,1,85,35a9.27,9.27,0,0,1-1.64,0c-0.52,0-1.41-.11-1.42-0.71,0-.91,1.7-0.53,2.59-0.7a3,3,0,0,0,.94-0.71,4.29,4.29,0,0,0,.48-0.23,2.91,2.91,0,0,0,.94-0.94,6.48,6.48,0,0,0-.24-0.7,2.64,2.64,0,0,1,.7-0.7,5.61,5.61,0,0,1,1.18-1.17,3.24,3.24,0,0,0,1.18-.47,5.32,5.32,0,0,0,0-.7,1.4,1.4,0,0,1,.47-0.48,11.67,11.67,0,0,1,1.64.22,1.5,1.5,0,0,0,.94-0.22c0.25-.17.47-0.34,0.7-0.48a2.19,2.19,0,0,1,.71-0.47c0.79,0,1.28.93,1.65,1.41a6.52,6.52,0,0,0,1.65,1.17,8.53,8.53,0,0,0,.94.47c0.64,0.29,1.85,1.25,1.88,1.88a5,5,0,0,0-.24.71,0.94,0.94,0,0,0,.94-0.94,3.08,3.08,0,0,1-.24-0.71c0.24-.49,1.12,0,1.41-0.22-0.05-.57-0.93-0.65-1.41-0.94a5.61,5.61,0,0,0-.7-0.48,5.07,5.07,0,0,1-1.18-.47,6.58,6.58,0,0,1-.7-0.94c-0.4-.48-1.19-0.55-0.94-1.64a0.8,0.8,0,0,1,.48-0.47M31.5,27h0.7a1.2,1.2,0,0,1,.7,0c-0.16.66-1.59,0.47-2.11,0.23,0-.24.38-0.2,0.71-0.23m-2.35,1.16h0.47a5.16,5.16,0,0,1-1.88.94c-0.38.13-.87,0.19-0.94-0.23s0.36-.42.72-0.48,1.12-.22,1.64-0.24m65.28,0c-0.33.11-.5,0.86,0,0.94a0.93,0.93,0,0,0,.23-0.94c-0.14-.14-0.14,0-0.23,0m-0.24,1.42a0.47,0.47,0,0,0-.47.23,6.74,6.74,0,0,1,0,1.41c0.32,0.61,1,.19,1.16-0.23,0.2-1-.23-1.54-0.7-1.41m3.29,2.81a2.73,2.73,0,0,0,1.88,1.17,2.81,2.81,0,0,0,.47-1.17H98.65a2.18,2.18,0,0,0-1.18,0M9.67,52.55c1.23,0,1.6,1.62,2.58,2.11a4.16,4.16,0,0,0,.94.23,2.65,2.65,0,0,1,.7.23,16,16,0,0,1,1.64.24c0.65,0.28,1.11,1.55,1.66,1.87a3.85,3.85,0,0,0,0,.94,3.22,3.22,0,0,0,1.16.71c0.52,0.27.7,0.95,1.18,1.17,0.17,0,.45,0,0.7,0,0.67,0.21.85,1.1,1.42,0.94a1,1,0,0,0,.47-0.94,1.63,1.63,0,0,1,.94-0.71c0.61,0,.71.56,0.94,1.17a11.24,11.24,0,0,1,.47,1.17,9.07,9.07,0,0,1,0,2.81,7.92,7.92,0,0,1-1.18,1.17c-0.17.24-.32,0.53-0.47,0.71s-0.51.42-.7,0.7a7.33,7.33,0,0,0-.24.7,2.32,2.32,0,0,0-.47,1.88,3.55,3.55,0,0,1,.47.94c0,0.44-.87.7-0.94,1.17a6.11,6.11,0,0,0,.47,1.41,3.54,3.54,0,0,0,.93.94,11.1,11.1,0,0,1,.94,1.41c0.65,1,1,2.11,1.65,3A11.22,11.22,0,0,1,26.12,80c0.12,0.25-.1.7,0,0.94,0.37,0.81,2,1.7,2.82,2.1a9.87,9.87,0,0,1,1.18.23A7,7,0,0,1,32,84.9,9.14,9.14,0,0,1,32.46,87a16.52,16.52,0,0,1,0,2.58c0,0.53.24,0.89,0.24,1.42v0.71c0,0.61.06,1.24,0,1.88a6.31,6.31,0,0,0,0,.93c0,0.31.21,0.43,0.24,0.7s-0.26.72-.24,0.94a14.9,14.9,0,0,0,.7,1.64,9,9,0,0,1,.24,2.11c0,0.29-.18.61-0.24,0.93s0,0.47,0,.71a5.05,5.05,0,0,0-.22.94c0,0.67.6,1.2,0.7,1.88a4.73,4.73,0,0,1,0,.7,1.45,1.45,0,0,0,.24.47,55,55,0,0,1-10.57-8s-0.15-.16-0.23-0.23a52.83,52.83,0,0,1-4.47-4.92c-0.79-1-1.63-2-2.36-3-0.41-.63-0.78-1.23-1.16-1.87l-0.71-1.17C14,85.18,13.33,84,12.74,82.82c-0.37-.76-0.6-1.57-0.94-2.36a50.12,50.12,0,0,1-2.11-5.63c-0.4-1.38-.65-2.78-0.94-4.22C8.52,69.52,8.2,68.44,8,67.33,8,66.71,7.87,66.07,7.81,65.46a53.49,53.49,0,0,1-.24-5.4,51.48,51.48,0,0,1,.48-6.56V53.27c0.47,0,1.12-.7,1.64-0.71m20.19,5.63c0.49-.21.64,0.88,0.24,0.94s-0.6-.76-0.24-0.94"/><circle class="cls-2" cx="60.17" cy="60.14" r="56.98"/><text class="cls-3" transform="translate(11.03 74.62)">E<tspan x="29.61" y="0">CR</tspan></text><text class="cls-4" transform="translate(130.75 60.85)">earl<tspan class="cls-5" x="123.37" y="0">y</tspan></text><text class="cls-6" transform="translate(128.88 116.59)">r<tspan class="cls-7" x="28.26" y="0">esea</tspan><tspan x="188.12" y="0">r</tspan><tspan class="cls-7" x="216.38" y="0">che</tspan><tspan x="341.93" y="0">r</tspan></text><text class="cls-8" transform="translate(502.22 116.59)">c<tspan class="cls-9" x="62.95" y="0">e</tspan><tspan class="cls-10" x="135" y="0">n</tspan><tspan class="cls-9" x="210.57" y="0">t</tspan><tspan class="cls-10" x="256.69" y="0">r</tspan><tspan class="cls-9" x="302.42" y="0">al</tspan></text><text class="cls-11" transform="translate(287.74 60.85)">ca<tspan class="cls-12" x="75.15" y="0">r</tspan><tspan x="101.72" y="0">ee</tspan><tspan class="cls-12" x="183.11" y="0">r</tspan></text></svg>