<?xml version="1.0" standalone="no"?>
<!DOCTYPE svg PUBLIC "-//W3C//DTD SVG 20010904//EN"
 "http://www.w3.org/TR/2001/REC-SVG-20010904/DTD/svg10.dtd">
<svg version="1.0" xmlns="http://www.w3.org/2000/svg"
 width="212.000000pt" height="212.000000pt" viewBox="0 0 212.000000 212.000000"
 preserveAspectRatio="xMidYMid meet">
<metadata>
Created by potrace 1.11, written by Peter Selinger 2001-2013
</metadata>
<g transform="translate(0.000000,212.000000) scale(0.100000,-0.100000)"
fill="#000000" stroke="none">
<path d="M1057 2104 c-1 -1 -38 -4 -82 -7 -101 -8 -121 -12 -224 -43 -326 -99
-569 -335 -685 -666 -52 -149 -68 -318 -45 -487 12 -85 70 -257 115 -340 133
-242 357 -424 624 -505 109 -33 178 -41 320 -40 501 5 921 374 1004 881 14 86
15 282 1 348 -52 252 -194 483 -390 635 -170 132 -330 194 -568 219 -37 4 -68
6 -70 5z m193 -159 c103 -23 223 -74 212 -89 -12 -14 -7 -47 9 -56 7 -5 8 -13
3 -21 -16 -27 -15 -52 2 -45 8 3 27 6 40 6 35 0 40 25 11 56 -41 44 -22 59 29
22 36 -26 42 -34 33 -49 -5 -11 -16 -19 -23 -19 -8 0 -19 -7 -26 -15 -7 -8
-27 -17 -46 -21 -38 -7 -44 -19 -13 -27 16 -4 20 -12 17 -34 -3 -27 -6 -28
-53 -28 l-49 0 -8 -40 c-10 -46 -5 -65 17 -65 21 0 19 -39 -2 -47 -23 -9 -42
-34 -43 -55 0 -10 -18 -29 -40 -43 -22 -14 -40 -30 -40 -37 0 -6 -7 -20 -17
-30 -10 -11 -17 -40 -19 -76 -2 -31 -4 -67 -5 -79 0 -13 13 -39 30 -58 17 -20
31 -40 31 -45 0 -4 17 -19 38 -32 42 -26 105 -27 182 -2 43 15 45 15 62 -6 12
-14 25 -20 38 -17 29 7 40 -13 30 -56 -7 -32 -5 -42 14 -65 51 -61 52 -85 9
-155 -20 -33 -23 -43 -14 -70 13 -41 16 -134 6 -169 -5 -22 -4 -28 8 -28 8 0
17 -11 19 -25 4 -19 -4 -32 -40 -62 -136 -114 -261 -171 -443 -202 -133 -23
-243 -20 -364 11 -75 19 -90 26 -90 43 -1 11 -4 26 -8 33 -5 7 -3 12 6 12 8 0
17 8 19 18 3 10 15 18 28 19 27 2 44 23 30 37 -16 16 -11 26 14 26 17 0 27 9
37 33 7 17 20 37 28 43 8 6 14 26 14 44 0 25 7 36 31 51 17 10 39 19 48 19 24
0 48 50 51 109 2 34 11 60 29 83 39 51 41 93 6 104 -13 3 -30 12 -38 19 -8 7
-28 15 -45 16 -16 2 -37 9 -46 16 -12 10 -36 18 -70 22 -6 1 -32 50 -33 63 -2
15 -42 37 -68 38 -17 0 -40 14 -65 37 -32 32 -45 38 -85 39 -25 0 -54 7 -64
15 -14 12 -18 12 -22 0 -3 -9 -7 -10 -11 -2 -10 16 -68 -6 -82 -30 -7 -15 -14
-17 -28 -10 -10 6 -27 8 -38 5 -30 -8 -55 30 -42 63 13 34 -3 51 -41 45 l-31
-4 15 37 c9 21 16 41 16 46 0 17 -48 9 -61 -11 -16 -22 -58 -34 -76 -22 -10 6
-8 25 8 84 22 80 43 103 84 88 11 -4 28 -3 38 2 31 16 91 5 96 -17 3 -20 18
-35 34 -35 4 0 6 16 4 36 -5 40 4 52 69 90 24 14 44 32 44 40 0 20 49 62 81
69 15 3 29 14 31 23 3 10 21 23 42 29 24 8 34 8 30 1 -7 -11 23 -6 71 12 35
13 32 28 -5 22 -29 -4 -41 10 -20 23 15 10 12 23 -7 28 -15 4 -14 5 3 6 11 0
25 -4 32 -11 9 -9 12 -9 12 0 0 7 9 12 21 12 11 0 30 5 42 11 l22 12 -22 -25
c-30 -32 -29 -38 5 -38 15 0 33 -5 39 -11 7 -7 12 -3 15 15 4 20 1 26 -13 26
-16 0 -17 3 -4 27 15 29 7 56 -20 67 -9 3 -15 18 -15 36 0 30 -21 42 -35 20
-3 -5 -15 -10 -27 -10 -15 0 -18 4 -14 17 5 11 -1 24 -16 36 l-23 19 30 -6
c17 -3 41 -9 54 -12 16 -5 22 -4 18 3 -5 7 0 9 13 6 15 -4 20 0 20 16 0 12 4
20 9 17 5 -4 20 -2 33 4 32 14 208 5 298 -15z m-545 -77 c-2 -32 -35 -68 -61
-68 -8 0 -19 -12 -24 -26 -6 -14 -16 -24 -23 -21 -13 5 -13 11 -2 40 6 13 2
17 -16 17 -21 0 -22 2 -8 15 11 11 120 71 135 75 1 0 1 -14 -1 -32z m-218
-175 c5 -14 -29 -26 -37 -13 -4 6 -15 8 -26 5 -10 -3 -5 1 11 9 32 16 47 16
52 -1z m36 -49 c-24 -18 -32 -17 -28 4 2 9 4 18 4 19 1 0 10 -1 21 -4 19 -5
20 -6 3 -19z m-73 -4 c-11 -11 -20 -24 -20 -30 0 -5 -5 -10 -11 -10 -5 0 -2
13 8 30 9 17 23 30 30 30 8 0 6 -7 -7 -20z m1348 -59 c3 -9 21 -37 39 -62 35
-50 42 -75 18 -65 -21 8 -45 -3 -45 -21 0 -18 -45 -10 -70 12 -8 7 -26 15 -40
17 -14 2 -24 9 -22 17 1 7 0 21 -3 31 -5 16 -15 18 -76 14 -40 -3 -81 -12 -95
-21 -16 -10 -33 -13 -51 -8 -20 5 -24 8 -13 15 8 5 18 7 22 4 11 -7 58 26 58
40 0 20 58 66 83 66 13 0 28 5 34 11 8 8 16 5 29 -9 11 -10 34 -27 52 -38 39
-23 42 -44 5 -44 -25 -1 -26 -2 -10 -11 21 -12 45 3 57 36 6 16 1 24 -29 40
-20 11 -37 28 -39 38 -3 14 6 11 43 -14 26 -17 49 -39 53 -48z m-1288 25 c0
-2 -7 -7 -16 -10 -8 -3 -12 -2 -9 4 6 10 25 14 25 6z m-298 -443 c10 -9 29
-18 40 -20 25 -4 58 -31 58 -47 0 -11 31 -35 62 -48 10 -4 22 -1 29 8 11 13
14 12 25 -8 20 -34 17 -53 -12 -87 -22 -27 -30 -53 -36 -116 -1 -5 21 -41 47
-80 27 -38 47 -72 45 -75 -2 -3 18 -16 43 -29 25 -13 49 -31 53 -40 4 -9 8
-56 9 -106 2 -49 6 -97 8 -105 3 -8 7 -43 9 -76 l4 -62 -25 16 c-106 66 -235
199 -296 302 -65 111 -100 212 -122 350 -8 47 -8 204 0 224 8 21 36 20 59 -1z"/>
<path d="M1408 1799 c-21 -12 -24 -49 -4 -49 8 0 22 7 30 16 33 32 13 56 -26
33z"/>
<path d="M1637 1584 c-9 -9 4 -35 14 -28 5 3 9 12 9 20 0 14 -12 19 -23 8z"/>
</g>
</svg>
