<?xml version="1.0" encoding="utf-8"?>
<!-- Generator: Adobe Illustrator 19.2.0, SVG Export Plug-In . SVG Version: 6.00 Build 0)  -->
<svg version="1.1" id="Layer_1" xmlns="http://www.w3.org/2000/svg" xmlns:xlink="http://www.w3.org/1999/xlink" x="0px" y="0px"
	 viewBox="0 0 512 512" style="enable-background:new 0 0 512 512;" xml:space="preserve">
<style type="text/css">
	.st0{fill:#1A91A1;}
	.st1{fill:#FED298;}
	.st2{fill:#FFFFFF;}
	.st3{fill:#FAD24D;}
	.st4{fill:#15BDB2;}
	.st5{fill:#21D0C3;}
	.st6{fill:#FEFEFE;}
	.st7{fill:#F0B97D;}
</style>
<circle class="st0" cx="256" cy="256" r="256"/>
<path class="st1" d="M190.7,300.2c-22.3-13-59.3-40.8-59.3-40.8s-10.1,13.2-2.8,25.4c7.3,12.2,38,34,38,34s-0.1,9.5-10,2.4
	S107.6,271,107.6,271s-20.8-62.8-25.1-72.9c-4.4-10.1-15.4-7.9-15.4-7.9s8.1,87.4,9.1,95.3c1,7.9,68.2,91.8,68.2,91.8l19.6,25.2
	L145,467.8l79.7,9.3l1.6-93C235.8,350.2,213,313.2,190.7,300.2z"/>
<path class="st2" d="M240.5,434.2l-88-18.2l-3.8,18.8l87.7,20.6L240.5,434.2L240.5,434.2z"/>
<path class="st3" d="M234.4,511.1l10.5-56.9l-97.1-22.4L133.7,481C164.1,497.5,198.2,508.1,234.4,511.1L234.4,511.1z"/>
<path class="st1" d="M321.3,300.2c22.3-13,59.3-40.8,59.3-40.8s10.1,13.2,2.8,25.4c-7.3,12.2-38,34-38,34s0.1,9.5,10,2.4
	c9.8-7.1,49.1-50.1,49.1-50.1s20.8-62.8,25.1-72.9c4.4-10.1,15.4-7.9,15.4-7.9s-8.1,87.4-9.1,95.3c-1,7.9-68.2,91.8-68.2,91.8
	l-19.6,25.2l18.9,65.3l-79.7,9.3l-1.6-93C276.2,350.2,299,313.2,321.3,300.2L321.3,300.2z"/>
<path class="st2" d="M271.5,434.2l88-18.2l3.8,18.8l-87.7,20.6L271.5,434.2L271.5,434.2z"/>
<path class="st3" d="M277.6,511.1l-10.5-56.9l97.1-22.4l14.1,49.1C347.9,497.5,313.8,508.1,277.6,511.1L277.6,511.1z"/>
<path class="st4" d="M256,27.9c67.9,0,122.9,55,122.9,122.9c0,67.9-55,122.9-122.9,122.9c-67.9,0-122.9-55-122.9-122.9
	C133.1,82.9,188.1,27.9,256,27.9z"/>
<path class="st5" d="M256,27.9c48.7,0,90.8,28.3,110.7,69.4c3,11.1,4.6,22.9,4.6,35c0,74.2-60.1,134.3-134.3,134.3
	c-11,0-21.8-1.3-32-3.9c-42.4-19.4-71.9-62.2-71.9-111.8C133.1,82.9,188.1,27.9,256,27.9L256,27.9z"/>
<path class="st2" d="M332.8,54.8c22.9,18.3,39,44.6,44.3,74.7c-0.4-0.6-0.7-1.3-1.1-2.4c-2.4,0.8-2.5,0.8-5.3,1.3l-0.1,0.2
	c-1.1,1.6,0.1,0.9-1.9,2.6c-2.4,2-3.9,4.7-6.5,6.3c-0.3,2.8,0.2,3.4-0.5,6.8c-0.3,1.2-1.7,4.5-3.3,4.3c-0.5-0.1-2.7-5.5-3.2-6.9
	c-0.9-2.5-1.9-4.4-2.5-7.3c-0.4-1.5-0.6-4.5-0.9-5.5c-1.7,0.2-1.6,1.3-3.2,0.2c-1.1-0.8-0.6-1.3-1.3-2.6c-1.3-1.3-2.7-2.5-4.1-3.8
	c-1.1-0.3-5.2,0.3-6.9,0.1c-3.1-0.3-3.4-0.1-5.2-2.6c-3.3,0.2-3,1.4-6.2-1.4c-2.1-1.8-1.7-4.6-4.7-3c-0.1,2.6,1.1,3.2,2.3,4.4
	c0.8,0.9,1.8,1.5,2.3,2.8c0,0,0.2,1.2,0.3,1.4c3,0.2,3.7-1.2,5.3-2.4c1.6,1.5,0,1.7,2.3,2.9c1.8,0.9,1.5,0.4,2.6,1.9
	c0.6,2-4.1,7.4-5.6,8.4c-1.2,0.8-1.8,0.3-2.9,1.2c-1.6,1.3,0.2,1.1-2.6,2.1c-3,1.1-5.9,3.3-9,3.5c-0.7-1.8-1.3-3.7-2-5.5
	c-2-6.3-1.9-3.9-3.9-7.2c-0.9-1.4-0.6-2.3-1.2-3.6c-0.4-0.9-1.1-1.4-1.7-2.5c-0.9-1.8-2-4.6-4.1-4.3c-0.4,1.4,1.9,6.2,2.5,7.4
	c0.6,1.2,1.5,1.7,1.8,3.3c0.4,2.3-0.1,2,1.2,3.6c2.6,3.2-0.1,2.6,4,5.7c3.1,2.3,2.3,3,3.6,6.1c2,0.6,8-2.1,9-1.3
	c1.2,2.2-1.4,5.6-2.1,7.5c-2.2,6.3-6.1,6.2-9,11.1c-1.6,2.6-2.4,3-3.9,6.1c-1.7,3.6,3.4,13.4,0.4,17.6c-0.7,0.9-2.8,1.5-5.5,4.4
	c-2.9,3.1,0.1,2.6-1,7.8c-0.9,1.2-1.9,1.3-3,2.1c-0.4,1.2-0.1,2.2-0.7,3.7c-0.7,1.8-0.8,0.9-1.9,2.3c-0.7,1.2-0.7,1.6-1.5,2.7
	c-0.7,1-1.1,1.3-1.8,1.9c-3.4,3.2-10.8,3.2-11.4,2.8c-1.7-1.5-0.6-1.9-1-3.9c-0.4-1.8-1.4-3.4-2.2-4.8l-0.1-0.1
	c-0.4-0.7-0.7-1.4-0.9-2c-1.4-4.5-0.9-7.9-3.4-12.4c-3.1-5.9,1.7-8.9,1.5-12.2c-0.1-0.9-0.4-1.4-0.5-2.1c-0.6-3.7-0.9-6.9-3.4-9.8
	c-2.7-3.1-2.3-2-1.5-7.1c1.1-5.9-1.4-4.4-5-4.5c-1.7-5.4-5.1-2.7-8.5-1.2c-2.1,1-2.9-0.3-5.3,0.1c-5.4,0.7-1.1,3-8.3-2.6
	c-3-2.4-1-1.2-2.8-4.1c-0.6-1.1-2.4-2.5-3.2-3.6c-2.7-3.4,0.5-6.8,0-10.7c-0.8-7.2-2-0.9,2-9.7c2.1-4.7,5.4-4.7,6.2-6.8
	c0.7-1.9,0.2-3.2,1.6-4.9c1.2-1.4,2.9-1.1,3.5-3.3c0.9-2.7-0.9-3-2.8-3.1c-0.8-2.8-0.8-2.1-0.2-4.7c0.4-1.4,0-2.1,0.4-3.6
	c0.8-3.6,7,0,8.7-1.5c0.8-1.5,0.9-3.1,0-4.5c-1-1.5-2.3-1.3-2.9-2.7c1.5-1,0.4-0.1,1.7-0.4c1.5-0.3,1.3-0.8,3.1-1.1
	c1.6-0.3,2.6-1.8,4.2-2.8c2.2-1.4,1.2-2.7,3.9-3.2c4.4-0.8,1.5-0.6,2-4.7c0.7-0.3,1.3-0.5,1.9-0.8c1.4,1.8-0.4,1.1,1.3,2.3
	c0.4-0.3,0.9-0.5,1.4-0.8c-0.2-2-1.1-1.6-1.7-4c-2.2,0.3-3,2.2-4.7,1.5c-1.7-0.6-1.8-3.1-1.7-5.1c0.6-1.5,3.8-2.3,5-2.7
	c2-0.7,1.7-2,3.5-3.8c2.4-2.4,0.6,0,1.8-3c2.6-0.1,1.4-0.2,2.9-1l0.1,0l0.2-0.1c0.9-0.4,2.1-0.5,3.3-0.9c4.3-1.4,6.1-0.7,9.2,0.6
	c2.4,1,9.8,1,10.4,4.1c-1.8,1.9-3.5,0.5-6,0.7c0.5,2.4,0.7,2.4,2.8,3.1c0.4-1.1-0.2-0.7,0.4-1.4c0.7,0.2,1.4,0.3,2.1,0.4
	c0.7-2.4,1.5-2.1,3.9-2.4c-0.4-1.7-0.8-1.2,0.1-2.5c2.5,0.3,0.5,0,1.7,2c1.7-0.2,3.4-2.1,5.8-2.4c1.5-0.2,1.4,0.4,3.5,0.2
	c1.7-0.2,1.7-0.8,3.4-0.1c0.6-1.2,0-1.1,1.5-1.4c2.4-0.4,4.4,1,6.7,1.4c-1.7-2.1-3.3-1.7-1.2-5.1c2.6-0.5,2.9-0.2,4,1.8
	C332.2,55.4,332.5,55,332.8,54.8L332.8,54.8z M136,124.3c5.5-25.2,18.8-47.5,37.2-64.3c1.4,0.5,3.3,0.2,4.7,0.1
	c0.5-0.9,0.8-1.8,1.7-2.1c0.4-0.1,0.8-0.2,1.4-0.1c0.1,0.5,0.2,0.9,0.3,1.4c0,0,0.1,0.3,0,0.3c0-0.1,0.1,0.2,0.1,0.3
	c2.5-1.4,0.4-1.5,1.7-4.1c-2.1-0.4-1.8-0.2-3.1-1.5c1.3-1.4,3.7-1.9,5.5-1.7c-0.1,1.3-0.7,1.2-0.2,2.3c1.4-0.9,2.4-3.2,4.7-2.8
	c0.4,0.3,0.9,0.6,1.4,0.9c-1.2,1.1-2.9,1.2-4.5,1.8c-0.7,6.8,2.2,1.1,1.2,5.8c1.7-0.1,3.3-1.4,4-2.6c-0.6-0.8-1.5-0.8-2-1.8
	c0.4-1.3,1.2-2.2,2.4-2.8c0.8-0.4,1.8-0.6,2.9-0.6c12.5,0.1,6.6,0.7,10.4,2.4c0.9,0.4,2.4,0.6,2.9,1.3c0.8,1.2,0,2.3,1.3,3.3
	c1.1,0.8,1.3,0,2.7,1.8c-0.3,1-1.1,2.1-2.6,2.1c-2.1,0-0.9-1.4-3.2-1.2c0,2.1,2.2,3,0.2,4.1c-1.7,1-0.6-0.4-1.9,0.3
	c0,0-0.2,0.1-0.2,0.1c-0.1,0.1-0.2,0.2-0.2,0.2c-0.2,0.3-0.4,0.5-0.6,0.7c-3.1-0.9-2.6-0.5-4.4-2.6c-0.7-0.8-0.8-1-2.1-0.9
	c-0.8,0-1.8,0.4-2.6-0.3c1.5-1.9,2.3-0.1,4.5-1.2c0.4-0.2,2.9-2.1,3.3-2.6c-0.7-1.5-0.1-0.3-1.1-1.2c-2.2-2.2-2.8-1.7-5.8-1.7
	c-1.4,1.6-2.4,3.6-4,4.5c-0.9,0.5-2,0.7-3.5,0c0.7,2.7,2.4,0.6,2.6,3.9c-1.1-0.2-1.7-0.8-2.9-0.4c-2.5,0.9-0.3,0.8-0.1,1.4
	c0,0,1.2,0.2,0,0.6c-1.3,0.5-0.2-0.3-2.7-1.7c0.4-0.6,0.7-1.3,1.1-2c-2,0.6-4.6,1.6-7,2.8c-2.7,1.4-5.3,2.9-6.8,4.3
	c0,2.4,0.4,0.8,0.6,3.6c3.7,0.2,2.5,1.3,6.1,2.4c0.7,0.2,1.6,0.4,2.7,0.6c0,1.8-1.6,3.1-0.5,4.9c2.6,1.8,2.6-1.7,3.3-3.9
	c8.7-1.8,4.5-4.4,6.7-9.1c0.3-0.7,0.8-1.5,1.5-2.3c0.7,0,3.4,0.3,4,0.4c2,0.3,0.9,0.8,3,1.8c0,1.7-0.9,3.9,1.6,3.5
	c1.9-0.3,1.5-1.9,3.9-2.2c1.1,2.5,0.8,3.6,1.3,6.6c5.7,2.2,3.1,4,2,8.1c0.7,0.3,1.5,0.7,2.2,1c0,1.2-0.1,2.4-0.1,3.5
	c-0.1,0-6.1-1.3-6.5-1.4c0.9-2.6,2.6-2.6,3.6-5.3c-2.1,0.4-2,1-3.5,1.5c-1.4,0.4-2.4,0.1-3.9,0.3c-0.5,1.7,0-1.5,0.1,0.7
	c0.1,0.8,0.5,0-0.1,0.9c-2-0.9-1.3-3.1-5-1.1c0.8,0.4,1.7,0.7,2.5,1.1c-0.1,2.4-0.3,0.6-0.8,2.2c-1.3,4.1,3.4,1.6,4.6,1.4
	c-0.3,2.2-1.7,2.2-3.5,2.8c-2.1,0.6-2.7,1.5-4.4,1.9c0-2.6-0.4-0.4,0.7-2.2c-1.7,0.2-2.9,0.9-4.4,1.6l-0.2,0.1
	c-2,0.8-2.3,0.9-2.6,3.5c-1.7,0.5-3.7,1.1-5,2.4c-1.2,1.2-2.4,2.3-3.6,3.5c-0.1,0.1-0.2,0.2-0.3,0.3c0.4,3.2,0,3.3-2,4.6
	c-1.7,1.1-2.2,1-3.7,2.4c-4.9,4.4-2.6,2.4-2.3,10c-1-0.3-2-0.7-2.9-1c-0.8-5,0.3-3.4-3.8-4.5c-4.4-1.3-3.8,0.9-5.6,1.3
	c-2,0.4-3-1.8-5.9,0.1c-1.6,1.1-3.1,1.8-3.5,3.8c-0.5,2.4-1.5,4.1-1.4,6.7c0.3,7.1,6.7,7.5,8.4,4.2c1.1-2.2,0.8-3.4,4.4-2.8
	c0.4,1.9-0.2,3.3-0.7,4.7c-0.3,0.9-1.2,2.4-0.7,3.6c2.6,1,2.6-0.9,6,1.1c0.2,3.4-1.5,7.2,1.1,9.1c2,1.5,2.1,0.2,3.9-0.2
	c2-0.3,1.6,0.9,3.4,1.2c1-1.3,0.6-0.5,1.3-2c1.2-2.7,1.5-1.4,4.3-3.1c0.3-0.2,0.5-0.3,0.8-0.5c0.3,0.7,0.7,1.3,1,1.9
	c2-2.4,2.3-0.1,4.6,0.6c1,0.3,1.7,0.4,2.3,0.4c1.7,0,1.9-0.8,4.2,0c0.3,0.1,0.6,0.2,0.9,0.3c0,0,0.2,0.1,0.2,0.1
	c0,0,0.2,0.1,0.2,0.2c0.4,0.4,0.4,0.9,0.7,1.4c1.6,1.5,3.2,3.1,4.8,4.6c3.1,1.2,3.1-1.1,6.7,2.4c1.5,1.4,0.8,1.4,1.7,3.2
	c0.1,0.3,0.4,0.6,0.5,0.9c0.3,0.9,0.7,1.7,1,2.5c1.6,2.1,3.8,0.8,6.1,3c1.3,1.3,0.3,0.9,3.2,1.4c4.4,0.7,2.7,0.3,6.1,2.9
	c1.3,0.9,1.6,0.4,2.8,1.2c1.7,2.4,1.3,4.9-0.2,7c-4.4,6.4-2.9,5.3-3.1,10.4c-0.2,2.9-1,8.9-3.7,9.6c-9.9,2.8-4.1,4.7-6.7,9.6
	c-0.7,1.4-1.3,1.7-1.8,2.8c-2,4.6-0.6,6.1-6.4,5.1c0.6,1,0.2,0.3,0.8,1.2c1.7,2.7,2,4.7-1.5,5.4c-3,0.6-1.7,0-2,3.3
	c-1.1,0.5-1.7,0-2.4,0.8c1,1.9,0.1,0.3,1.8,1.4c-0.3,1-0.6,2-0.8,3.1c-0.7,2.5-0.9,0.2-1.1,3.1c1,0.5,1.7,0.4,2.6,1.6
	c-0.1,0.9-1.1,3.5-1.3,5c1.5,2.2,2.6,4.5,5.7,4.7c0,1.8,0.4,1.6-1.2,2c-1.3,0.3-4.2-0.9-5.4-1.6c-2-1.1-3.9-2.6-5.3-4.6
	c-0.8-1.2-0.5-0.6-1.3-1.7c-1.5-1.9-0.9-2.8-1.3-4.1c-0.2-0.8-1.5-1.6-0.9-4c0.1-0.7,1.2-4-0.1-3.4c-1.3,0.5,1,0.3-0.8,1.2
	c-0.4-1.2-0.8-3-1-4.4c-0.5-2.5-1.1-2.6-1.3-4.1c-0.6-3.5,0.9-3.9-0.7-9.7c-1.1-3.9-0.6-13-1.8-17.7c-0.2-0.7-0.4-1.4-0.7-1.9
	c-1.1-1.8-3.7-2.6-5.7-4c-0.1,0-0.2-0.1-0.2-0.1c-2.9-2-5.6-9.9-7.9-12.9c-1.1-1.4-1.7-0.8-2.2-3c-0.5-2,0.3-1.7,0.9-3.4
	c-3.5-6.4,4.5-6.3,2.9-14.1c-0.4-1.4-1.4-3.4-2.2-4c-1.7,0.7-0.9,1.1-1.7,2.5c-1.3-0.8-2.7-1.5-4-2.3c-4.1-3.9-1.9-1.1-3-3.6
	c-2.4-5.4-4.8-2.4-7.7-5c-1.3-1.1-1.5-2.8-3.7-2.5c-3.3,0.4-1.5,0.9-4.8-0.6c-2.9-1.4-5.9-2.9-7.9-4.8
	C137.7,127.5,138.9,127.8,136,124.3L136,124.3z M174.5,58.8c0.7-0.7,1.5-1.3,2.3-2l0.1,0.1c0.2,0.3,0.3,0.3,0.4,0.9
	C175.2,58.4,175.2,58.7,174.5,58.8z M279.7,95.3c1.1,0.7,2.4,1.2,3.2,1.9c1,2.8-0.3,1.4,1.7,4.4c1.1,1.6,0.9,2.7,2.1,3.6
	c2.2-0.3,0.3,0.3,1.6-1c0.2-0.3,0.9-1,1.1-1.4c-0.7-1.1-1.1-1.2-1.8-2.3c2.4-3.2,3.5-1.4,4.1,0.8c1.5,6,3.9,4.2,5.9,3.9
	c2-0.3,0.3,0.1,2.1,0.5c1.7,0.4,0.9,0,2.1-0.3c4.1-1,0.9,7,0.5,7.9c-2.2,0.3-1.8-0.2-3.4-0.4c-3.3-0.3,0.2,2-7.5-0.6
	c-7.4-2.4-5.8-2.9-7.4,2.2c-1.7-0.1-1.6-0.4-3.2-1c-0.6-0.2-0.9-0.4-1.2-0.4l-0.1,0c-0.6-0.2,0,0-1.3-1.3c-1.1-1.1-3.9-1.3-5.9-2.4
	c0-1.7,1.5-3.1-0.3-5.1c-0.6-0.2-9,0.2-10.3,0.5c-2.7,0.6-3.2,2.9-6.9,2.4c-2-0.3-1.3-0.1-1.9-1.3c0.7-0.7,0-0.3,1.1-0.7
	c0.4-0.2,0.6-0.1,1-0.2c6.1-0.9,2.9-4,6.7-6.9c3.1-2.5,0.7,0,2.4-3c2.1-0.2,1.9,0.8,3.7,0c1.5-0.8,1-1.4,3.1-1.5
	c1.9,1.9,1.5,3,4.6,4.5c1.2,0.6,2,0.9,2.8,1.9c1.4,2,0.2,1.4,0.8,2.7c0.1-0.1,0.3-0.1,0.4-0.2l0.1,0c1.7-0.8-0.8-1,1.9-3.4
	c-0.8-0.6-1.4-1-1.9-1.2l-0.1,0c-2.1-1.2-1.3-0.1-3.9-3.4c-0.7-0.9-0.9-1-0.9-2.5c1.9-0.3,2.3,1,4,2.6
	C279.1,94.9,279.3,95.1,279.7,95.3L279.7,95.3L279.7,95.3z M321.7,180.2c-1.7,0.9-2,2.9-3.3,4c-1.4,1.3-3.3,0.7-3.9,3.1
	c-0.7,3,1.2,2.1-0.9,6c-0.7,1.4-0.8,5.1,0.4,6.1c3.4,3.3,5.3-5,6.1-7.7c0.6-1.9,1.1-4,1.8-5.7C322.5,184.2,323.4,182.6,321.7,180.2z
	 M316.1,92.3c0.3,3.8,2.6,5.3,4.2,7.1c-0.2,1.8-0.6,1.4-0.6,3.9c1.9,1.4,3.3,2.2,5.9,1.5c0.4-3.1-0.6-2.9-1.6-5
	c0.2-0.3,0.6-0.6,0.7-0.6c0.7-0.9,0.4,0.4,0.7-1.2c-1.8-0.6-4.8-2.5-5.1-5c0.9-0.7,0.6-0.3,1.3-0.7c1.5-0.9,0.4,0.5,1.2-1.1
	c-0.7-1.4-1.6-1.7-3.4-1C318.6,90.4,316.5,91.9,316.1,92.3L316.1,92.3z M300,93.3c-1.2-1.7-1.1-2.6-3.5-2.6c-0.9,1-2,2.5-2.6,4.1
	c-0.8,2.3-0.2,0.7-0.2,3.2c0,0.1,0,0.2,0,0.3c0,1.5-0.4-0.3-0.2,1.1c1.9-0.4,0.4-0.3,1.8-0.8c1.3-0.4,5.3-1.6,6.4-1.4
	c2.7,0.6,5,2.8,8.1,0.6c-0.2-2.7-3.5-3.8-5.7-5c0.1-2.5,0.8-0.5,0.6-3c-0.8,0-1.3-0.2-2,0.2c-1.8,0.8-0.8,1-0.8,1.3
	c0.1,1.4,1.8-0.3,0,1.4C301.4,93.2,300.6,93.2,300,93.3L300,93.3z M254,74.2c-0.1,4.4,1.5,2.9,2.9,5.1c-0.7,1.9-0.8,0.4-1.5,2.3
	c-0.7,1.6,0.2,0.2-0.3,3c1.1,0.1,2.8-0.3,4.3-0.5c2.1-0.2,2.1-0.4,2.8-2.6c-1.2-1.4-2.4-2.9-3.6-4.3c-1.5-2.3,0-0.7-0.5-2.7
	c-0.4-0.7-0.7-1.4-1-2.1C255.2,73.1,255.4,72.9,254,74.2L254,74.2z"/>
<g>
	<path class="st6" d="M366.8,269.3l12.6-9.4l1.8,4.8l-10.6,8.6L366.8,269.3L366.8,269.3z"/>
	<path class="st6" d="M145.4,269.8l-12.4-9.6l-1.9,4.8l10.5,8.8L145.4,269.8z"/>
</g>
<g>
	<path class="st7" d="M110.3,226.7l3.5,51.1l0,0c-3.8-4.1-6.2-6.8-6.2-6.8s-6.2-18.9-12.6-37.6l-0.4-15.3
		C94.5,212.4,109.5,210,110.3,226.7L110.3,226.7z"/>
	<path class="st7" d="M401.7,226.7l-3.5,51.1l0,0c3.8-4.1,6.2-6.8,6.2-6.8s6.2-18.9,12.6-37.6l0.4-15.3
		C417.5,212.4,402.5,210,401.7,226.7L401.7,226.7z"/>
</g>
</svg>
