<?xml version="1.0" encoding="utf-8"?>
<!-- Generator: Adobe Illustrator 19.2.0, SVG Export Plug-In . SVG Version: 6.00 Build 0)  -->
<svg version="1.1" id="Layer_1" xmlns="http://www.w3.org/2000/svg" xmlns:xlink="http://www.w3.org/1999/xlink" x="0px" y="0px"
	 viewBox="0 0 512 512" style="enable-background:new 0 0 512 512;" xml:space="preserve">
<style type="text/css">
	.st0{fill:#1A91A1;}
	.st1{fill:#FFFFFF;}
	.st2{fill:#666666;}
	.st3{fill:#C8CACC;}
	.st4{fill:#FF816F;}
	.st5{fill:#807D7D;}
	.st6{fill:#FFBA1B;}
	.st7{fill:#F5A209;}
	.st8{fill:#F0B97D;}
	.st9{fill:#FED198;}
	.st10{fill:#20D0C2;}
	.st11{fill:#DFE1E3;}
</style>
<path class="st0" d="M256,512c141,0,256-115,256-256C512,115,397,0,256,0C115,0,0,115,0,256C0,397,115,512,256,512z"/>
<g>
	<path class="st1" d="M117.7,306.1c1.8,0,3.6,0.3,5.3,0.8c3.9-6.6,11.1-11,19.3-11c12.3,0,22.2,9.8,22.5,22c0.3,0,0.5,0,0.8,0
		c6.3,0,11.5,5.1,11.5,11.5c0,6.3-5.1,11.5-11.5,11.5c-3.9,0-7.3-1.9-9.3-4.8c-3.8,3-8.7,4.8-13.9,4.8c-4.9,0-9.5-1.6-13.2-4.3
		c-3.1,2.7-7,4.3-11.4,4.3c-9.6,0-17.4-7.8-17.4-17.4C100.3,313.8,108.1,306.1,117.7,306.1L117.7,306.1z"/>
	<path class="st1" d="M432.7,214.7c-2.5,0-4.8,0.4-7,1.1c-5.2-8.7-14.8-14.6-25.7-14.6c-16.3,0-29.6,13.1-29.9,29.4
		c-0.4,0-0.7,0-1.1,0c-8.4,0-15.3,6.8-15.3,15.3c0,8.4,6.8,15.3,15.3,15.3c5.1,0,9.7-2.5,12.5-6.4c5.1,4,11.5,6.4,18.5,6.4
		c6.6,0,12.6-2.1,17.5-5.7c4.1,3.5,9.4,5.7,15.2,5.7c12.8,0,23.2-10.4,23.2-23.2C455.9,225,445.5,214.7,432.7,214.7L432.7,214.7z"/>
</g>
<path class="st2" d="M244.6,42.7l21.3,45.6c-2.7,31-37,67.2-78.6,83.5c-39.6,15.6-86.2,12.6-106.5-6.7L62,119.6l99.5-7.9L244.6,42.7
	L244.6,42.7z"/>
<path class="st3" d="M1.6,126.8l-0.5-1.2L121.2,12.7L286,9.6l0.5,1.2L168.1,127.7L1.6,126.8L1.6,126.8z"/>
<path class="st4" d="M68.7,253.8l-8.1,51.7c-0.1,0.8,2.7,2,4.1,0.3c1.8,2.1,4.1,1.3,4.8-0.2c0.9,1.5,3,2.3,4.5,0.1
	c1.4,1.7,4.4,0.5,4.2-0.9l-8-51C70,252.9,68.8,253.1,68.7,253.8L68.7,253.8z"/>
<path class="st5" d="M1.1,125.6L120.6,11.1L286,9.6L166.6,124.2L1.1,125.6L1.1,125.6z"/>
<path class="st1" d="M144.3,66.6c0.8-0.6,1.9-0.5,2.5,0.3c0.6,0.8,0.5,1.9-0.3,2.5l-80.4,64.9l5,119.5c0.4,0.9-0.1,1.9-1,2.3
	c-0.9,0.4-1.9-0.1-2.3-1l-5.4-120.7c-0.3-0.7-0.1-1.5,0.5-2L144.3,66.6L144.3,66.6z"/>
<path class="st6" d="M69.5,245.7c4.4,0,8,3.6,8,8c0,4.4-3.6,8-8,8s-8-3.6-8-8C61.5,249.2,65,245.7,69.5,245.7z"/>
<path class="st7" d="M75.9,251.6c0,3.3-2.1,6.2-5.1,7.3c-0.8,0.3-1.7,0.5-2.6,0.5c-0.1,0-0.1,0-0.2,0c-2.6-0.1-4.9-1.4-6.3-3.5
	c0.8,2.8,3.1,5,6,5.6c0.6,0.1,1.1,0.2,1.7,0.2c0.6,0,1.2-0.1,1.8-0.2c3.6-0.8,6.2-4,6.2-7.8c0-2.3-1-4.3-2.5-5.8
	C75.6,249,75.9,250.2,75.9,251.6L75.9,251.6z"/>
<path class="st8" d="M202.6,236.8l40.4-25.2c5.7,0.1,7.3,9.4,3.1,14.7l-35.7,23.2L202.6,236.8L202.6,236.8z"/>
<path class="st9" d="M215.7,195.2l-29.9,46.5l19.9,63l10.6-39.6l-8.4-25.9l18.7-33.6C230.5,197.1,221.2,188.1,215.7,195.2z"/>
<path class="st8" d="M283.5,272.3l-3.4,21.6l-1.3,8.5l-34.5-12.2l40.9,61.1l10.3,83.3c1.4-1.2-1-76.1,0.3-77.9
	c4.6-6.8,7.9-18.4,9.5-35.3l-0.3-28.9l-0.3-15.4l3.5-16.4C299.6,255.9,286.9,260.7,283.5,272.3L283.5,272.3z"/>
<g>
	<path class="st9" d="M204.9,309.4l12-57.9l39.6-16c4.8,2.7,6.6,5.4,2.7,13.5l-20,10.4l5.1,30.7c35.4,19,46.7,41.5,44.5,69.4
		c1.2,24.5,5.5,50.5,6.7,75l-59.4,1.5l13.3-64L204.9,309.4z"/>
	<path class="st9" d="M186.8,188.8l0.5,50.5l13.4-20.9l-1.6-26.4C199.1,192.1,194.7,181.6,186.8,188.8z"/>
</g>
<path class="st10" d="M216.4,420.2h104.9l2.1,82.8c-21.5,5.8-44.1,9-67.4,9c-14.3,0-28.2-1.2-41.9-3.4L216.4,420.2z"/>
<g>
	<path class="st1" d="M227.1,420.2h83.4v-20.1h-83.4V420.2z"/>
	<path class="st1" d="M187.3,196.8l-0.2-7.8c0,0,3.6-0.8,3.9,0.9c0.3,1.8,0.2,6.8,0.2,6.8L187.3,196.8z"/>
	<path class="st1" d="M213,200.5l4.6-6.3c0,0,3.3,1.5,2.5,3.1c-0.9,1.6-4,5.5-4,5.5L213,200.5L213,200.5z"/>
	<path class="st1" d="M249.3,239.7l7-3.3c0,0,2.2,2.9,0.7,3.9c-1.5,1-6.1,3-6.1,3L249.3,239.7z"/>
	<path class="st1" d="M249.5,168.9L403.7,71c18.4-5.8,32.7,31.2,21.2,37.5l-150,98.5c-8.5,5.6-21-7.3-25.1-21.8
		c-2.2-7.7,0-7.9,8.1-13.4L249.5,168.9z"/>
</g>
<path class="st6" d="M350.7,104.7c12.9-1,28.4,26.6,24.2,36.7L354.2,155c1-14.8-13.2-35.9-26.3-35.9L350.7,104.7L350.7,104.7z"/>
<path class="st7" d="M404.4,155.5l-29.4-14.1L354.2,155l23.9,17.7l5.8-15L404.4,155.5L404.4,155.5z"/>
<path class="st11" d="M256.9,172.5l1-0.7c7.2-0.2,24.7,21.7,12.8,30.1c-8.5,6-17.4-13.3-18.6-20.1c3.4-3.8,10.4,7.4,9.1,8l-2.7,1.2
	c0,0,1.3,5.3,4.1,5l10-5.9C272.5,190.1,268.1,174.6,256.9,172.5L256.9,172.5z"/>
</svg>
