<?xml version="1.0" encoding="utf-8"?>
<!-- Generator: Adobe Illustrator 19.2.0, SVG Export Plug-In . SVG Version: 6.00 Build 0)  -->
<svg version="1.1" id="Layer_1" xmlns="http://www.w3.org/2000/svg" xmlns:xlink="http://www.w3.org/1999/xlink" x="0px" y="0px"
	 viewBox="0 0 512 512" style="enable-background:new 0 0 512 512;" xml:space="preserve">
<style type="text/css">
	.st0{fill:#1A91A1;}
	.st1{fill:#FFFFFF;}
	.st2{fill:#0F7986;}
	.st3{fill:#FED298;}
	.st4{fill:#FF5B62;}
	.st5{fill:#21D0C3;}
	.st6{fill:#FAD24D;}
</style>
<circle class="st0" cx="256" cy="256" r="256"/>
<g>
	<path class="st1" d="M263.1,253.7c27.7,0,50.1,22.4,50.1,50.1s-22.4,50.1-50.1,50.1S213,331.4,213,303.8S235.4,253.7,263.1,253.7z"
		/>
	<path class="st1" d="M119.8,232.1H60.1V226h59.7v-50.6h6.1v104.4h94.7v6.1h-97.7h-3.1v-3.1L119.8,232.1L119.8,232.1z M402.6,232.1
		h59.7V226h-59.7v-50.6h-6.1v104.4h-89.6v6.1h92.7h3.1v-3.1L402.6,232.1L402.6,232.1z"/>
</g>
<path class="st2" d="M263.1,261.4c5.7,0,11.2,1.1,16.2,3.2c5.2,2.1,9.8,5.3,13.7,9.2c3.9,3.9,7,8.6,9.2,13.7
	c2.1,5,3.2,10.5,3.2,16.2c0,5.7-1.1,11.2-3.2,16.2c-2.1,5.2-5.3,9.8-9.2,13.7c-3.9,3.9-8.6,7-13.7,9.2c-5,2.1-10.5,3.2-16.2,3.2
	c-5.7,0-11.2-1.1-16.2-3.2c-5.2-2.1-9.8-5.3-13.7-9.2c-3.9-3.9-7-8.6-9.2-13.7c-2.1-5-3.2-10.5-3.2-16.2c0-5.7,1.1-11.2,3.2-16.2
	c2.1-5.2,5.3-9.8,9.2-13.7c3.9-3.9,8.6-7,13.7-9.2C251.9,262.6,257.4,261.4,263.1,261.4z M228.7,320h12.2c-0.8-2.2-1.5-4.5-2-6.7
	c-0.5-2.4-0.8-4.9-0.9-7.3h-12.9c0.1,2.4,0.5,4.7,1.1,7C226.8,315.4,227.6,317.7,228.7,320L228.7,320L228.7,320z M245.6,320h15.3
	v-14h-18.6c0.1,2.3,0.4,4.6,0.9,6.9C243.8,315.2,244.6,317.6,245.6,320z M265.2,320h15.3c1-2.3,1.8-4.7,2.3-7.1
	c0.5-2.3,0.8-4.6,0.9-6.9h-18.6L265.2,320L265.2,320z M285.2,320h12.2c1.1-2.2,1.9-4.6,2.5-7c0.6-2.3,0.9-4.6,1.1-7h-12.9
	c-0.1,2.5-0.4,4.9-0.9,7.3C286.7,315.5,286.1,317.8,285.2,320L285.2,320L285.2,320z M295.1,324.3h-11.7c-0.6,1.1-1.2,2.2-1.8,3.3
	c-0.8,1.3-1.6,2.5-2.5,3.8c-1.5,2.1-3.3,4.2-5.2,6.2c-1.1,1.2-2.4,2.3-3.7,3.5c3.2-0.6,6.3-1.6,9.2-3c4-1.9,7.6-4.4,10.6-7.5h0
	c1.2-1.2,2.3-2.4,3.3-3.7C293.9,326.1,294.5,325.2,295.1,324.3L295.1,324.3L295.1,324.3z M278.5,324.3h-13.2v15.3
	c1.8-1.4,3.4-2.9,5-4.5c2-2,3.8-4.1,5.3-6.3c0.7-1,1.3-1.9,2-3C277.8,325.4,278.1,324.8,278.5,324.3L278.5,324.3z M260.9,324.3
	h-13.2c0.3,0.5,0.6,1.1,1,1.6c0.6,1,1.3,2,2,3c1.6,2.1,3.3,4.2,5.3,6.3c1.5,1.5,3.2,3,5,4.5L260.9,324.3L260.9,324.3z M242.8,324.3
	h-11.7c0.6,0.9,1.2,1.8,1.9,2.6c1,1.3,2.1,2.5,3.3,3.7h0c3.1,3.1,6.7,5.6,10.6,7.5c2.9,1.4,6,2.4,9.2,3c-1.3-1.1-2.5-2.3-3.7-3.5
	c-1.9-2-3.7-4.1-5.2-6.2c-0.9-1.2-1.7-2.5-2.5-3.8C244,326.5,243.4,325.4,242.8,324.3L242.8,324.3L242.8,324.3z M231.1,283.2H243
	c0.5-1,1.1-2.1,1.7-3.1c0.7-1.2,1.5-2.4,2.3-3.5c1.6-2.2,3.3-4.4,5.3-6.5c1.2-1.3,2.5-2.5,3.8-3.7c-3.3,0.6-6.4,1.6-9.3,3
	c-4,1.9-7.6,4.4-10.7,7.5C234.3,278.8,232.6,280.9,231.1,283.2z M247.9,283.2h13V268c-1.8,1.5-3.5,3-5,4.6c-2,2.1-3.8,4.2-5.4,6.5
	c-0.6,0.9-1.2,1.8-1.8,2.7C248.5,282.3,248.2,282.8,247.9,283.2L247.9,283.2L247.9,283.2z M265.2,283.2h13c-0.3-0.5-0.5-0.9-0.8-1.4
	c-0.6-0.9-1.2-1.8-1.8-2.7c-1.6-2.2-3.4-4.4-5.4-6.5c-1.5-1.6-3.2-3.1-5-4.6L265.2,283.2L265.2,283.2L265.2,283.2z M283.1,283.2
	h11.9c-0.6-0.9-1.2-1.8-1.9-2.6c-1-1.3-2.1-2.5-3.3-3.7c-3.1-3.1-6.7-5.6-10.7-7.5c-2.9-1.4-6-2.4-9.3-3c1.4,1.2,2.6,2.5,3.9,3.7
	c2,2.1,3.7,4.2,5.3,6.5c0.8,1.2,1.6,2.3,2.3,3.5C282,281.2,282.6,282.2,283.1,283.2L283.1,283.2z M297.5,287.5H285
	c0.9,2.2,1.5,4.5,2,6.7c0.5,2.4,0.9,4.9,1,7.3H301c-0.1-2.4-0.5-4.7-1.1-7C299.4,292.1,298.5,289.8,297.5,287.5L297.5,287.5
	L297.5,287.5z M280.4,287.5h-15.1v14h18.6c-0.1-2.3-0.5-4.6-1-6.9C282.2,292.3,281.4,289.9,280.4,287.5z M260.9,287.5h-15.1
	c-1,2.3-1.8,4.7-2.4,7.1c-0.5,2.3-0.9,4.6-1,6.9h18.6L260.9,287.5L260.9,287.5L260.9,287.5z M241.1,287.5h-12.4
	c-1.1,2.2-1.9,4.6-2.5,7c-0.6,2.3-0.9,4.6-1.1,7h12.9c0.1-2.5,0.5-4.9,1-7.3C239.6,292,240.3,289.8,241.1,287.5L241.1,287.5
	L241.1,287.5z"/>
<path class="st1" d="M258.1,204.6H191H188v-3.1v-47.3h6.1v44.3h64.1v-61.8V55.2h6.1v81.5v23.5h64.1v-44.3h6.1v47.3v3.1h-3.1h-67.1
	v90.1h-6.1V204.6L258.1,204.6z"/>
<path class="st3" d="M309.3,371.2L309.3,371.2c-3.8-2.8-8.4-1.1-12,2l-22.4,19.2l-1.7-5.8l-1.6-14.3l0.8-31L273,310
	c0.1-4.9-3.7-9.1-8.5-9.1l0,0c-4.8,0-8.8,3.8-9,8.7l-1.3,53.7l-2.3,0.1l0.8-12.5c0.3-4.9-3.7-9-8.5-9.1c-4.8-0.1-8.6,3.8-9,8.7
	l-0.9,13.6l-2.6,0.1l0.7-8.8c0.4-4.9-3.7-9.1-8.5-9.1l0,0c-4.8,0-8.6,3.8-9,8.7l-0.8,9.8l-3.2,0.1l0.2-5c0.2-4.9-3.7-9.1-8.5-9.1
	l0,0c-4.8,0-8.8,3.8-9,8.7l-0.4,10.4l-0.2,1.8l2.2,56.3c0.3,7.6,3.3,14.1,6.6,17.8c0.9,1.1,1.9,1.9,2.9,2.5l-2.1,58.4
	c17.2,3.6,35,5.6,53.3,5.6c2.9,0,5.7-0.1,8.6-0.2l-2.7-66.1c5.7-2.7,13.4-9.5,15.1-14.3l0,0l34.2-48.1
	C313.9,379.5,313.1,374,309.3,371.2L309.3,371.2L309.3,371.2z"/>
<path class="st4" d="M269.6,477.4l-70.3-0.8l-2.1,28.7c18.9,4.4,38.6,6.8,58.8,6.8c5,0,9.9-0.2,14.8-0.4L269.6,477.4L269.6,477.4
	L269.6,477.4z"/>
<g>
	<path class="st1" d="M267.5,464.6l-66-1.1l-0.1,13l66,1.1L267.5,464.6z"/>
	<path class="st1" d="M258.7,308.6l-0.3,7.7l11.7,0.3l0.3-7.7C270.7,302.8,258.4,302.6,258.7,308.6z M301.9,373.7l-6.5,6.5l8.3,8.5
		l6.5-6.5C314.5,377.9,306.1,369.5,301.9,373.7z"/>
</g>
<path class="st5" d="M261.2,29.9c9,0,16.3,7.3,16.3,16.3c0,9-7.3,16.3-16.3,16.3c-9,0-16.3-7.3-16.3-16.3
	C244.9,37.2,252.2,29.9,261.2,29.9z"/>
<path class="st6" d="M334.5,99.6c9,0,16.3,7.3,16.3,16.3c0,9-7.3,16.3-16.3,16.3c-9,0-16.3-7.3-16.3-16.3
	C318.1,106.9,325.5,99.6,334.5,99.6z"/>
<path class="st4" d="M194.1,131.1c12.7,0,23.1,10.3,23.1,23.1c0,12.7-10.3,23.1-23.1,23.1S171,167,171,154.2
	C171,141.5,181.3,131.1,194.1,131.1z"/>
<path class="st5" d="M122.9,163.8c6.4,0,11.5,5.2,11.5,11.5c0,6.4-5.2,11.5-11.5,11.5s-11.5-5.2-11.5-11.5S116.5,163.8,122.9,163.8z
	"/>
<path class="st6" d="M60.3,205.5c12.8,0,23.1,10.3,23.1,23.1c0,12.7-10.3,23.1-23.1,23.1c-12.7,0-23.1-10.3-23.1-23.1
	C37.2,215.8,47.5,205.5,60.3,205.5z"/>
<path class="st4" d="M462.4,217c6.4,0,11.5,5.2,11.5,11.5c0,6.4-5.2,11.5-11.5,11.5c-6.4,0-11.5-5.2-11.5-11.5
	C450.9,222.2,456,217,462.4,217z"/>
<path class="st5" d="M399.5,152.3c12.7,0,23.1,10.3,23.1,23.1c0,12.8-10.3,23.1-23.1,23.1c-12.7,0-23.1-10.3-23.1-23.1
	S386.8,152.3,399.5,152.3z"/>
</svg>
